# xmcd
#
# Track frame offsets:
#	150
#	11742
#	27746
#	43985
#	56546
#	74570
#	90398
#	104808
#	119062
#	132265
#	144822
#	164868
#
# Disc length: 2417 seconds
#
# Revision: 0
# Processed by: cddbd v1.4PL0 Copyright (c) Steve Scherf et al.
# Submitted via: EasyCDDAExtractor 5.0.4.1
#
DISCID=bb096f0c
DTITLE=Price, Ray - Prisoner Of Love
DYEAR=1900
DGENRE=Country
TTITLE0=Better Class Of Looser
TTITLE1=Prisoner Of Love
TTITLE2=Soft Rain
TTITLE3=Ramblin' Rose
TTITLE4=If Its Love (Then Bet It All)
TTITLE5=In My Life
TTITLE6=Fly Me To The Moon
TTITLE7=Body And Soul
TTITLE8=I've Got A New Heartache
TTITLE9=The Only Bridge
TTITLE10=I Wish I Was Eighteen Again
TTITLE11=What A Wonderful World
EXTD=
EXTT0=
EXTT1=
EXTT2=
EXTT3=
EXTT4=
EXTT5=
EXTT6=
EXTT7=
EXTT8=
EXTT9=
EXTT10=
EXTT11=
PLAYORDER=
